<svg xmlns="http://www.w3.org/2000/svg" viewBox="0 16 94 94" width="94" height="94">
  <path transform="translate(12.00,84.00) scale(0.035156,-0.035156)" d="M1998 -198V-396H1801V-198ZM1801 -198V-2H1998V-198ZM1801 -2V199H1998V-2ZM1801 199V399H1998V199ZM1801 399V600H1998V399ZM1801 600V800H1998V600ZM1801 800V1001H1998V800ZM1801 1001V1202H1998V1001ZM1801 -198V-396H1601V-198ZM1601 -198V-2H1801V-198ZM1601 -2V199H1801V-2ZM1601 199V399H1801V199ZM1601 399V600H1801V399ZM1601 600V800H1801V600ZM1601 800V1001H1801V800ZM1601 1001V1202H1801V1001ZM1601 1202V1398H1801V1202ZM1400 1398V1599H1601V1398ZM1601 -198V-396H1400V-198ZM1400 -198V-2H1601V-198ZM1400 1202V1398H1601V1202ZM1200 1398V1599H1400V1398ZM1400 -198V-396H1200V-198ZM1200 -198V-2H1400V-198ZM999 1398V1599H1200V1398ZM999 -198V-2H1200V-198ZM999 -2V199H1200V-2ZM999 199V399H1200V199ZM999 600V800H1200V600ZM999 800V1001H1200V800ZM999 1001V1202H1200V1001ZM798 1398V1599H999V1398ZM999 -198V-396H798V-198ZM798 -198V-2H999V-198ZM798 -2V199H999V-2ZM798 199V399H999V199ZM798 600V800H999V600ZM798 800V1001H999V800ZM798 1001V1202H999V1001ZM602 1398V1599H798V1398ZM798 -198V-396H602V-198ZM602 -198V-2H798V-198ZM602 -2V199H798V-2ZM602 199V399H798V199ZM602 600V800H798V600ZM602 800V1001H798V800ZM602 1001V1202H798V1001ZM401 1398V1599H602V1398ZM602 -198V-396H401V-198ZM401 -198V-2H602V-198ZM201 1398V1599H401V1398ZM401 -198V-396H201V-198ZM201 -198V-2H401V-198ZM201 1202V1398H401V1202ZM0 -198V-2H201V-198ZM0 -2V199H201V-2ZM0 199V399H201V199ZM0 399V600H201V399ZM0 600V800H201V600ZM0 800V1001H201V800ZM0 1001V1202H201V1001ZM0 1202V1398H201V1202Z" fill="#e3b341"/>
</svg>
