<svg xmlns="http://www.w3.org/2000/svg" viewBox="0 0 573 194" width="573" height="194">
<style>
  .accent-fill { fill: var(--accent, #e3b341); }
  .brace { fill: var(--accent-dark, #a07820); }
</style>
<path class="brace" stroke="#0d1117" stroke-width="5" paint-order="stroke fill" d="M16.0 12.0H42.400001525878906V23.0H27.0V163.0H42.400001525878906V174.0H16.0V98.5H5.0V87.5H16.0Z"/>
<path class="brace" stroke="#0d1117" stroke-width="5" paint-order="stroke fill" d="M530.5999755859375 12.0H557.0V87.5H568.0V98.5H557.0V174.0H530.5999755859375V163.0H546.0V23.0H530.5999755859375Z"/>
<path transform="translate(117.72,84.00) scale(0.035156,-0.035156)" d="M1801.0 -198.0H1998.0V1202.0H1801.0V1398.0H1601.0V1599.0H201.0V1398.0H0.0V-2.0H201.0V-198.0H401.0V-396.0H1801.0ZM1601.0 199.0H1400.0V-2.0H401.0V199.0H201.0V399.0H602.0V199.0H1200.0V600.0H401.0V800.0H201.0V1202.0H401.0V1398.0H1400.0V1202.0H1601.0V1001.0H1200.0V1202.0H602.0V800.0H1400.0V600.0H1601.0Z" fill="#e9e7e1" stroke="#0d1117" stroke-width="142.22" paint-order="stroke fill" fill-rule="nonzero"/>
<path transform="translate(181.03,84.00) scale(0.035156,-0.035156)" d="M1801.0 -198.0H1998.0V1202.0H1801.0V1398.0H1601.0V1599.0H201.0V1398.0H0.0V-2.0H201.0V-198.0H401.0V-396.0H1801.0ZM1601.0 199.0H1400.0V-2.0H401.0V199.0H201.0V399.0H602.0V199.0H1200.0V600.0H401.0V800.0H201.0V1202.0H401.0V1398.0H1400.0V1202.0H1601.0V1001.0H1200.0V1202.0H602.0V800.0H1400.0V600.0H1601.0Z" fill="#e9e7e1" stroke="#0d1117" stroke-width="142.22" paint-order="stroke fill" fill-rule="nonzero"/>
<path transform="translate(272.40,84.00) scale(0.035156,-0.035156)" d="M1801.0 -198.0H1998.0V1202.0H1801.0V1398.0H1601.0V1599.0H201.0V1398.0H0.0V-2.0H201.0V-198.0H401.0V-396.0H1801.0ZM1601.0 199.0H1400.0V-2.0H401.0V199.0H201.0V399.0H602.0V199.0H1200.0V600.0H401.0V800.0H201.0V1202.0H401.0V1398.0H1400.0V1202.0H1601.0V1001.0H1200.0V1202.0H602.0V800.0H1400.0V600.0H1601.0Z" fill="#e9e7e1" stroke="#0d1117" stroke-width="142.22" paint-order="stroke fill" fill-rule="nonzero"/>
<path transform="translate(335.72,84.00) scale(0.035156,-0.035156)" d="M1400.0 800.0H1801.0V1398.0H1601.0V1599.0H0.0V1001.0H401.0V-198.0H602.0V-396.0H1400.0ZM1400.0 1398.0V1202.0H999.0V-2.0H602.0V1202.0H201.0V1398.0Z" fill="#e9e7e1" stroke="#0d1117" stroke-width="142.22" paint-order="stroke fill" fill-rule="nonzero"/>
<path transform="translate(392.01,84.00) scale(0.035156,-0.035156)" d="M1801.0 800.0H1998.0V1398.0H1801.0V1599.0H0.0V-198.0H201.0V-396.0H1998.0V199.0H1801.0ZM1601.0 1398.0V1202.0H602.0V800.0H1400.0V600.0H602.0V199.0H1601.0V-2.0H201.0V1398.0Z" fill="#e9e7e1" stroke="#0d1117" stroke-width="142.22" paint-order="stroke fill" fill-rule="nonzero"/>
<path transform="translate(455.32,84.00) scale(0.035156,-0.035156)" d="M1801.0 -2.0H1998.0V1001.0H1801.0V1202.0H1601.0V1398.0H1400.0V1599.0H0.0V-198.0H201.0V-396.0H1601.0V-198.0H1801.0ZM1601.0 399.0H1400.0V199.0H1200.0V-2.0H201.0V1398.0H1200.0V1202.0H1400.0V1001.0H1601.0ZM999.0 399.0H1200.0V1001.0H999.0V1202.0H602.0V199.0H999.0Z" fill="#e9e7e1" stroke="#0d1117" stroke-width="142.22" paint-order="stroke fill" fill-rule="nonzero"/>
<path transform="translate(114.20,166.00) scale(0.035156,-0.035156)" d="M1200.0 -198.0V-396.0H1998.0V1202.0H1801.0V1398.0H1601.0V1599.0H0.0V-198.0H201.0V-396.0H999.0V-198.0ZM1601.0 -2.0H1200.0V600.0H602.0V-2.0H201.0V1398.0H1400.0V1202.0H1601.0V800.0H1400.0V600.0H1601.0ZM602.0 800.0H1200.0V1202.0H602.0Z" fill="#e9e7e1" stroke="#0d1117" stroke-width="142.22" paint-order="stroke fill" fill-rule="nonzero"/>
<path transform="translate(177.52,166.00) scale(0.035156,-0.035156)" d="M1801.0 800.0H1998.0V1398.0H1801.0V1599.0H0.0V-198.0H201.0V-396.0H1998.0V199.0H1801.0ZM1601.0 1398.0V1202.0H602.0V800.0H1400.0V600.0H602.0V199.0H1601.0V-2.0H201.0V1398.0Z" fill="#e9e7e1" stroke="#0d1117" stroke-width="142.22" paint-order="stroke fill" fill-rule="nonzero"/>
<path transform="translate(240.83,166.00) scale(0.035156,-0.035156)" d="M1801.0 199.0H1998.0V1398.0H1801.0V1599.0H999.0V1398.0H798.0V1599.0H0.0V399.0H201.0V199.0H401.0V-2.0H602.0V-198.0H798.0V-396.0H1400.0V-198.0H1601.0V-2.0H1801.0ZM1601.0 1398.0V600.0H1400.0V399.0H1200.0V199.0H999.0V-2.0H798.0V199.0H602.0V399.0H401.0V600.0H201.0V1398.0H602.0V600.0H798.0V399.0H999.0V600.0H1200.0V1398.0Z" fill="#e9e7e1" stroke="#0d1117" stroke-width="142.22" paint-order="stroke fill" fill-rule="nonzero"/>
<path transform="translate(304.15,166.00) scale(0.035156,-0.035156)" d="M201.0 -198.0V-396.0H999.0V1398.0H798.0V1599.0H0.0V-198.0ZM602.0 1398.0V-2.0H201.0V1398.0Z" fill="#e9e7e1" stroke="#0d1117" stroke-width="142.22" paint-order="stroke fill" fill-rule="nonzero"/>
<path transform="translate(332.20,166.00) scale(0.035156,-0.035156)" d="M1801.0 800.0H1998.0V1398.0H1801.0V1599.0H0.0V-198.0H201.0V-396.0H1998.0V199.0H1801.0ZM1601.0 1398.0V1202.0H602.0V800.0H1400.0V600.0H602.0V199.0H1601.0V-2.0H201.0V1398.0Z" fill="#e9e7e1" stroke="#0d1117" stroke-width="142.22" paint-order="stroke fill" fill-rule="nonzero"/>
<path transform="translate(395.52,166.00) scale(0.035156,-0.035156)" d="M1200.0 -198.0V-396.0H1998.0V1398.0H1801.0V1599.0H999.0V1398.0H798.0V1599.0H0.0V-198.0H201.0V-396.0H999.0V-198.0ZM1601.0 1398.0V-2.0H1200.0V199.0H999.0V399.0H798.0V199.0H602.0V-2.0H201.0V1398.0H602.0V600.0H798.0V800.0H999.0V600.0H1200.0V1398.0Z" fill="#e9e7e1" stroke="#0d1117" stroke-width="142.22" paint-order="stroke fill" fill-rule="nonzero"/>
<path transform="translate(54.40,84.00) scale(0.035156,-0.035156)" d="M1200.0 -198.0V-396.0H1998.0V1202.0H1801.0V1398.0H1601.0V1599.0H201.0V1398.0H0.0V-198.0H201.0V-396.0H999.0V-198.0ZM1601.0 -2.0H1200.0V399.0H602.0V-2.0H201.0V1202.0H401.0V1398.0H1400.0V1202.0H1601.0ZM602.0 600.0H1200.0V1202.0H602.0Z" class="accent-fill" stroke="#0d1117" stroke-width="142.22" paint-order="stroke fill" fill-rule="nonzero"/>
<path transform="translate(244.35,84.00) scale(0.035156,-0.035156)" d="M201.0 -198.0V-396.0H999.0V1398.0H798.0V1599.0H0.0V-198.0ZM602.0 1398.0V-2.0H201.0V1398.0Z" class="accent-fill" stroke="#0d1117" stroke-width="142.22" paint-order="stroke fill" fill-rule="nonzero"/>
</svg>